<mxfile host="app.diagrams.net" modified="2023-05-30T09:19:57.847Z" agent="Mozilla/5.0 (Windows NT 10.0; Win64; x64) AppleWebKit/537.36 (KHTML, like Gecko) Chrome/113.0.0.0 Safari/537.36" etag="KlkmT0WJhtYU5ZKHlKN1" version="21.3.2" type="github">
  <diagram id="3rsK4sRMyDqufHuRaAZe" name="Page-1">
    <mxGraphModel dx="1434" dy="708" grid="1" gridSize="10" guides="1" tooltips="1" connect="1" arrows="1" fold="1" page="1" pageScale="1" pageWidth="827" pageHeight="1169" math="0" shadow="0">
      <root>
        <mxCell id="0" />
        <mxCell id="1" parent="0" />
        <mxCell id="Eku0pKUzbgy1wHCtAKzw-3" value="" style="rounded=0;whiteSpace=wrap;html=1;strokeColor=default;fontFamily=宋体;fontSize=12;fontColor=default;fillColor=none;" parent="1" vertex="1">
          <mxGeometry x="160" y="315" width="320" height="295" as="geometry" />
        </mxCell>
        <mxCell id="U90KXrBJ-N6k7Ng19d0M-2" value="前一个区块的哈希值" style="rounded=0;whiteSpace=wrap;html=1;fillColor=default;fontSize=12;fontFamily=宋体;" parent="1" vertex="1">
          <mxGeometry x="193.5" y="370" width="71.5" height="30" as="geometry" />
        </mxCell>
        <mxCell id="U90KXrBJ-N6k7Ng19d0M-4" value="默克树根" style="rounded=0;whiteSpace=wrap;html=1;fillColor=default;fontSize=12;fontFamily=宋体;" parent="1" vertex="1">
          <mxGeometry x="290" y="370" width="70" height="30" as="geometry" />
        </mxCell>
        <mxCell id="U90KXrBJ-N6k7Ng19d0M-5" value="时间戳" style="rounded=0;whiteSpace=wrap;html=1;fillColor=default;fontSize=12;fontFamily=宋体;" parent="1" vertex="1">
          <mxGeometry x="385" y="330" width="70" height="30" as="geometry" />
        </mxCell>
        <mxCell id="U90KXrBJ-N6k7Ng19d0M-50" value="&lt;span style=&quot;font-size: 14px;&quot;&gt;&lt;b style=&quot;font-size: 14px;&quot;&gt;区块体&lt;/b&gt;&lt;/span&gt;" style="text;html=1;strokeColor=none;fillColor=none;align=center;verticalAlign=middle;whiteSpace=wrap;rounded=0;fontSize=14;fontFamily=宋体;" parent="1" vertex="1">
          <mxGeometry x="140" y="420" width="120" height="30" as="geometry" />
        </mxCell>
        <mxCell id="U90KXrBJ-N6k7Ng19d0M-51" value="&lt;span style=&quot;font-size: 14px;&quot;&gt;&lt;b style=&quot;font-size: 14px;&quot;&gt;区块头&lt;/b&gt;&lt;/span&gt;" style="text;html=1;strokeColor=none;fillColor=none;align=center;verticalAlign=middle;whiteSpace=wrap;rounded=0;fontSize=14;fontFamily=宋体;" parent="1" vertex="1">
          <mxGeometry x="140" y="320" width="120" height="30" as="geometry" />
        </mxCell>
        <mxCell id="U90KXrBJ-N6k7Ng19d0M-115" value="区块序号" style="rounded=0;whiteSpace=wrap;html=1;fillColor=default;fontSize=12;fontFamily=宋体;" parent="1" vertex="1">
          <mxGeometry x="290" y="330" width="75" height="30" as="geometry" />
        </mxCell>
        <mxCell id="Eku0pKUzbgy1wHCtAKzw-1" value="hash_1234" style="rounded=0;whiteSpace=wrap;html=1;fillColor=default;fontSize=12;fontFamily=Times New Roman;" parent="1" vertex="1">
          <mxGeometry x="290" y="430" width="70" height="30" as="geometry" />
        </mxCell>
        <mxCell id="azaXkCB6HdsnD8nDRbe0-1" value="" style="endArrow=none;dashed=1;html=1;dashPattern=1 3;strokeWidth=2;rounded=0;exitX=0;exitY=0.329;exitDx=0;exitDy=0;entryX=0.997;entryY=0.322;entryDx=0;entryDy=0;entryPerimeter=0;exitPerimeter=0;fontSize=12;fontFamily=宋体;" parent="1" source="Eku0pKUzbgy1wHCtAKzw-3" target="Eku0pKUzbgy1wHCtAKzw-3" edge="1">
          <mxGeometry width="50" height="50" relative="1" as="geometry">
            <mxPoint x="390" y="410" as="sourcePoint" />
            <mxPoint x="440" y="360" as="targetPoint" />
          </mxGeometry>
        </mxCell>
        <mxCell id="azaXkCB6HdsnD8nDRbe0-2" value="随机数" style="rounded=0;whiteSpace=wrap;html=1;fillColor=default;fontSize=12;fontFamily=宋体;" parent="1" vertex="1">
          <mxGeometry x="385" y="370" width="70" height="30" as="geometry" />
        </mxCell>
        <mxCell id="azaXkCB6HdsnD8nDRbe0-3" value="hash_12" style="rounded=0;whiteSpace=wrap;html=1;fillColor=default;fontSize=12;fontFamily=Times New Roman;" parent="1" vertex="1">
          <mxGeometry x="240" y="502.5" width="70" height="30" as="geometry" />
        </mxCell>
        <mxCell id="azaXkCB6HdsnD8nDRbe0-4" value="tx1" style="rounded=0;whiteSpace=wrap;html=1;fillColor=default;fontSize=12;fontFamily=Times New Roman;" parent="1" vertex="1">
          <mxGeometry x="220" y="560" width="50" height="30" as="geometry" />
        </mxCell>
        <mxCell id="azaXkCB6HdsnD8nDRbe0-5" value="tx2" style="rounded=0;whiteSpace=wrap;html=1;fillColor=default;fontSize=12;fontFamily=Times New Roman;" parent="1" vertex="1">
          <mxGeometry x="280" y="560" width="50" height="30" as="geometry" />
        </mxCell>
        <mxCell id="azaXkCB6HdsnD8nDRbe0-6" value="hash_34" style="rounded=0;whiteSpace=wrap;html=1;fillColor=default;fontSize=12;fontFamily=Times New Roman;" parent="1" vertex="1">
          <mxGeometry x="350" y="502.5" width="70" height="30" as="geometry" />
        </mxCell>
        <mxCell id="azaXkCB6HdsnD8nDRbe0-14" value="" style="endArrow=classicThin;html=1;rounded=0;exitX=0.5;exitY=0;exitDx=0;exitDy=0;entryX=0.5;entryY=1;entryDx=0;entryDy=0;endFill=1;fontSize=12;fontFamily=Times New Roman;" parent="1" source="azaXkCB6HdsnD8nDRbe0-4" target="azaXkCB6HdsnD8nDRbe0-3" edge="1">
          <mxGeometry width="50" height="50" relative="1" as="geometry">
            <mxPoint x="220" y="580" as="sourcePoint" />
            <mxPoint x="250" y="530" as="targetPoint" />
          </mxGeometry>
        </mxCell>
        <mxCell id="azaXkCB6HdsnD8nDRbe0-16" value="" style="endArrow=classicThin;html=1;rounded=0;exitX=0.5;exitY=0;exitDx=0;exitDy=0;endFill=1;entryX=0.5;entryY=1;entryDx=0;entryDy=0;fontSize=12;fontFamily=Times New Roman;" parent="1" source="azaXkCB6HdsnD8nDRbe0-5" target="azaXkCB6HdsnD8nDRbe0-3" edge="1">
          <mxGeometry width="50" height="50" relative="1" as="geometry">
            <mxPoint x="215" y="570" as="sourcePoint" />
            <mxPoint x="265" y="542.5" as="targetPoint" />
          </mxGeometry>
        </mxCell>
        <mxCell id="azaXkCB6HdsnD8nDRbe0-17" value="" style="endArrow=classicThin;html=1;rounded=0;exitX=0.5;exitY=0;exitDx=0;exitDy=0;entryX=0.5;entryY=1;entryDx=0;entryDy=0;endFill=1;fontSize=12;fontFamily=Times New Roman;" parent="1" source="azaXkCB6HdsnD8nDRbe0-22" target="azaXkCB6HdsnD8nDRbe0-6" edge="1">
          <mxGeometry width="50" height="50" relative="1" as="geometry">
            <mxPoint x="379" y="560" as="sourcePoint" />
            <mxPoint x="429" y="532.5" as="targetPoint" />
          </mxGeometry>
        </mxCell>
        <mxCell id="azaXkCB6HdsnD8nDRbe0-18" value="" style="endArrow=classicThin;html=1;rounded=0;exitX=0.5;exitY=0;exitDx=0;exitDy=0;endFill=1;entryX=0.5;entryY=1;entryDx=0;entryDy=0;fontSize=12;fontFamily=Times New Roman;" parent="1" source="azaXkCB6HdsnD8nDRbe0-23" target="azaXkCB6HdsnD8nDRbe0-6" edge="1">
          <mxGeometry width="50" height="50" relative="1" as="geometry">
            <mxPoint x="474" y="560" as="sourcePoint" />
            <mxPoint x="429" y="532.5" as="targetPoint" />
          </mxGeometry>
        </mxCell>
        <mxCell id="azaXkCB6HdsnD8nDRbe0-19" value="" style="endArrow=classicThin;html=1;rounded=0;exitX=0.5;exitY=0;exitDx=0;exitDy=0;entryX=0.5;entryY=1;entryDx=0;entryDy=0;endFill=1;fontSize=12;fontFamily=Times New Roman;" parent="1" source="azaXkCB6HdsnD8nDRbe0-3" target="Eku0pKUzbgy1wHCtAKzw-1" edge="1">
          <mxGeometry width="50" height="50" relative="1" as="geometry">
            <mxPoint x="252.5" y="502.5" as="sourcePoint" />
            <mxPoint x="302.5" y="475" as="targetPoint" />
          </mxGeometry>
        </mxCell>
        <mxCell id="azaXkCB6HdsnD8nDRbe0-20" value="" style="endArrow=classicThin;html=1;rounded=0;exitX=0.5;exitY=0;exitDx=0;exitDy=0;endFill=1;entryX=0.5;entryY=1;entryDx=0;entryDy=0;fontSize=12;fontFamily=Times New Roman;" parent="1" source="azaXkCB6HdsnD8nDRbe0-6" target="Eku0pKUzbgy1wHCtAKzw-1" edge="1">
          <mxGeometry width="50" height="50" relative="1" as="geometry">
            <mxPoint x="347.5" y="502.5" as="sourcePoint" />
            <mxPoint x="302.5" y="475" as="targetPoint" />
          </mxGeometry>
        </mxCell>
        <mxCell id="azaXkCB6HdsnD8nDRbe0-21" value="" style="endArrow=classicThin;html=1;rounded=0;exitX=0.5;exitY=0;exitDx=0;exitDy=0;endFill=1;entryX=0.5;entryY=1;entryDx=0;entryDy=0;fontSize=12;fontFamily=宋体;" parent="1" source="Eku0pKUzbgy1wHCtAKzw-1" target="U90KXrBJ-N6k7Ng19d0M-4" edge="1">
          <mxGeometry width="50" height="50" relative="1" as="geometry">
            <mxPoint x="435" y="512.5" as="sourcePoint" />
            <mxPoint x="337.5" y="470" as="targetPoint" />
          </mxGeometry>
        </mxCell>
        <mxCell id="azaXkCB6HdsnD8nDRbe0-22" value="tx3" style="rounded=0;whiteSpace=wrap;html=1;fillColor=default;fontSize=12;fontFamily=Times New Roman;" parent="1" vertex="1">
          <mxGeometry x="335" y="560" width="50" height="30" as="geometry" />
        </mxCell>
        <mxCell id="azaXkCB6HdsnD8nDRbe0-23" value="tx4" style="rounded=0;whiteSpace=wrap;html=1;fillColor=default;fontSize=12;fontFamily=Times New Roman;" parent="1" vertex="1">
          <mxGeometry x="395" y="560" width="50" height="30" as="geometry" />
        </mxCell>
      </root>
    </mxGraphModel>
  </diagram>
</mxfile>
